<svg width="86" height="18" viewBox="0 0 86 18" fill="none" xmlns="http://www.w3.org/2000/svg">
<path d="M84.3262 17C80.5613 7.02737 47.4005 4.06897 20.362 11.6886C16.3264 12.5172 13.2573 13.1834 9.66764 12.9599C7.77514 12.842 6.05613 12.4002 4.58504 11.5237C0.116234 8.86107 1.4604 1.25346 8.46991 2.05947M8.46991 2.05947C8.67057 2.08254 8.87586 2.11251 9.0858 2.14968M8.46991 2.05947C8.67797 2.07414 8.88389 2.10484 9.0858 2.14968M8.46991 2.05947C8.42709 2.05645 8.38417 2.05411 8.34118 2.05246M9.0858 2.14968C9.13471 2.15834 9.18387 2.1674 9.23329 2.17684M9.0858 2.14968C11.595 2.70699 13.4852 5.44987 11.1832 6.79797C9.55657 7.75056 7.15442 6.87795 7.38982 4.8123" stroke="#63ABB7" stroke-width="3"/>
</svg>
