<svg width="296" height="43" viewBox="0 0 296 43" fill="none" xmlns="http://www.w3.org/2000/svg">
<path d="M138.418 38.8887C132.747 23.4301 87.7054 20.4446 51.5609 33.7496C46.1483 35.2513 42.0341 36.4498 37.164 36.2783C34.5964 36.1879 32.2449 35.5805 30.2036 34.2787C24.0027 30.3244 25.3809 18.3214 34.9122 19.2359M34.9122 19.2359C35.185 19.2621 35.4645 19.2988 35.7507 19.3467M34.9122 19.2359C35.1945 19.2485 35.4749 19.2864 35.7507 19.3467M34.9122 19.2359C34.854 19.2333 34.7958 19.2318 34.7376 19.2313M35.7507 19.3467C35.8174 19.3578 35.8845 19.3696 35.9519 19.3819M35.7507 19.3467C39.1782 20.0958 41.8947 24.3048 38.8579 26.5349C36.7121 28.1107 33.4112 26.8616 33.6101 23.6089" stroke="#63ABB7" stroke-width="3"/>
<path d="M157.647 38.8887C163.319 23.4301 208.36 20.4446 244.505 33.7496C249.917 35.2513 254.031 36.4498 258.901 36.2783C261.469 36.1879 263.821 35.5805 265.862 34.2787C272.063 30.3244 270.684 18.3214 261.153 19.2359M261.153 19.2359C260.88 19.2621 260.601 19.2988 260.315 19.3467M261.153 19.2359C260.871 19.2485 260.59 19.2864 260.315 19.3467M261.153 19.2359C261.211 19.2333 261.27 19.2318 261.328 19.2313M260.315 19.3467C260.248 19.3578 260.181 19.3696 260.114 19.3819M260.315 19.3467C256.887 20.0958 254.171 24.3048 257.208 26.5349C259.353 28.1107 262.654 26.8616 262.455 23.6089" stroke="#63ABB7" stroke-width="3"/>
<path fill-rule="evenodd" clip-rule="evenodd" d="M150.881 21.5399C151.656 19.5938 152.144 16.7714 152.144 13.631C152.144 11.3034 150.439 5.12622 148.336 3C146.234 5.12622 144.529 11.3034 144.529 13.631C144.529 16.8895 145.054 19.8055 145.881 21.7557C137.798 15.9739 131.286 21.663 127.22 23.2358C132.762 23.0238 139.951 26.3036 144.183 30.4739C145.924 32.1899 147.289 34.1363 148.277 36.2137C149.283 33.8043 150.78 31.5469 152.766 29.5895C156.829 25.5847 163.743 22.3 169.069 22.3365C164.746 20.4674 158.527 16.0025 150.881 21.5399Z" stroke="#63ABB7" stroke-width="3"/>
<path d="M274.021 33.7505C276.019 34.3415 278.859 34.5671 281.969 34.28C284.274 34.0672 290.998 31.4418 292.912 29.1622C287.37 27.6072 280.851 27.0102 278.536 26.9815C274.771 26.9349 276.96 29.295 274.021 33.7505Z" stroke="#63ABB7" stroke-width="3"/>
<path d="M22.2664 33.7505C20.2681 34.3415 17.4284 34.5671 14.3184 34.28C12.0132 34.0672 5.28867 31.4418 3.37549 29.1622C8.91758 27.6072 15.4365 27.0102 17.7513 26.9815C21.516 26.9349 19.3273 29.295 22.2664 33.7505Z" stroke="#63ABB7" stroke-width="3"/>
<path d="M22.2664 33.7505C20.2681 34.3415 17.4284 34.5671 14.3184 34.28C12.0132 34.0672 5.28867 31.4418 3.37549 29.1622C8.91758 27.6072 15.4365 27.0102 17.7513 26.9815C21.516 26.9349 19.3273 29.295 22.2664 33.7505Z" stroke="#63ABB7" stroke-width="3"/>
</svg>
